HIERARCHY
ROOT Hips
{
	OFFSET 0.000000 100.481300 0.000000
	CHANNELS 6 Xposition Yposition Zposition Xrotation Yrotation Zrotation 
	JOINT Spine
	{
		OFFSET -0.279200 12.230698 -2.892100
		CHANNELS 3 Xrotation Yrotation Zrotation
		JOINT Spine1
		{
			OFFSET -0.232667 10.192268 -1.242267
			CHANNELS 3 Xrotation Yrotation Zrotation
			JOINT Spine1_split
			{
				OFFSET -0.232667 10.192268 -1.242267
				CHANNELS 3 Xrotation Yrotation Zrotation
				JOINT Spine2
				{
					OFFSET -0.232667 10.192268 -1.242267
					CHANNELS 3 Xrotation Yrotation Zrotation
					JOINT Neck
					{
						OFFSET -0.418800 17.814194 8.416900
						CHANNELS 3 Xrotation Yrotation Zrotation
						JOINT Head
						{
							OFFSET 0.000000 7.031097 3.806800
							CHANNELS 3 Xrotation Yrotation Zrotation
							JOINT HeadTop_End
							{
								OFFSET 0.000000 24.646606 12.978600
								CHANNELS 3 Xrotation Yrotation Zrotation
								End Site
								{
									OFFSET 0.000000 0.000000 0.000000
								}
							}
						}
					}
					JOINT LeftShoulder
					{
						OFFSET 8.476499 7.247704 -3.868750
						CHANNELS 3 Xrotation Yrotation Zrotation
						JOINT LeftShoulder_split
						{
							OFFSET 8.476499 7.247704 -3.868750
							CHANNELS 3 Xrotation Yrotation Zrotation
							JOINT LeftArm
							{
								OFFSET 9.308998 -2.777710 0.208600
								CHANNELS 3 Xrotation Yrotation Zrotation
								JOINT LeftForeArm
								{
									OFFSET 29.972298 0.000000 0.000000
									CHANNELS 3 Xrotation Yrotation Zrotation
									JOINT LeftHand
									{
										OFFSET 26.026505 0.000000 0.000000
										CHANNELS 3 Xrotation Yrotation Zrotation
										JOINT LeftHandThumb1
										{
											OFFSET 12.240501 -7.147949 9.207150
											CHANNELS 3 Xrotation Yrotation Zrotation
											JOINT LeftHandThumb2
											{
												OFFSET 4.138618 -2.389435 2.389433
												CHANNELS 3 Xrotation Yrotation Zrotation
												JOINT LeftHandThumb3
												{
													OFFSET 2.726913 -1.574387 1.574386
													CHANNELS 3 Xrotation Yrotation Zrotation
													JOINT LeftHandThumb4
													{
														OFFSET 3.941010 -2.275345 2.275342
														CHANNELS 3 Xrotation Yrotation Zrotation
														End Site
														{
															OFFSET 0.000000 0.000000 0.000000
														}
													}
												}
											}
										}
										JOINT LeftHandIndex1
										{
											OFFSET 24.424698 -1.985611 5.953459
											CHANNELS 3 Xrotation Yrotation Zrotation
											JOINT LeftHandIndex2
											{
												OFFSET 6.426697 0.000000 0.000000
												CHANNELS 3 Xrotation Yrotation Zrotation
												JOINT LeftHandIndex3
												{
													OFFSET 5.337898 0.000000 0.000000
													CHANNELS 3 Xrotation Yrotation Zrotation
													JOINT LeftHandIndex4
													{
														OFFSET 4.409401 0.000000 0.000000
														CHANNELS 3 Xrotation Yrotation Zrotation
														End Site
														{
															OFFSET 0.000000 0.000000 0.000000
														}
													}
												}
											}
										}
										JOINT LeftHandMiddle1
										{
											OFFSET 23.810104 0.000000 0.000000
											CHANNELS 3 Xrotation Yrotation Zrotation
											JOINT LeftHandMiddle2
											{
												OFFSET 7.176498 0.000000 0.000000
												CHANNELS 3 Xrotation Yrotation Zrotation
												JOINT LeftHandMiddle3
												{
													OFFSET 6.774902 0.000000 0.000000
													CHANNELS 3 Xrotation Yrotation Zrotation
													JOINT LeftHandMiddle4
													{
														OFFSET 5.403328 0.000000 0.000000
														CHANNELS 3 Xrotation Yrotation Zrotation
														End Site
														{
															OFFSET 0.000000 0.000000 0.000000
														}
													}
												}
											}
										}
										JOINT LeftHandRing1
										{
											OFFSET 22.908401 -0.839279 -6.020567
											CHANNELS 3 Xrotation Yrotation Zrotation
											JOINT LeftHandRing2
											{
												OFFSET 6.337502 0.000000 0.000000
												CHANNELS 3 Xrotation Yrotation Zrotation
												JOINT LeftHandRing3
												{
													OFFSET 5.779297 0.000000 0.000000
													CHANNELS 3 Xrotation Yrotation Zrotation
													JOINT LeftHandRing4
													{
														OFFSET 4.965698 0.000000 0.000000
														CHANNELS 3 Xrotation Yrotation Zrotation
														End Site
														{
															OFFSET 0.000000 0.000000 0.000000
														}
													}
												}
											}
										}
										JOINT LeftHandPinky1
										{
											OFFSET 20.037003 -1.530319 -10.950146
											CHANNELS 3 Xrotation Yrotation Zrotation
											JOINT LeftHandPinky2
											{
												OFFSET 5.254700 0.000000 0.000000
												CHANNELS 3 Xrotation Yrotation Zrotation
												JOINT LeftHandPinky3
												{
													OFFSET 4.810204 0.000000 0.000000
													CHANNELS 3 Xrotation Yrotation Zrotation
													JOINT LeftHandPinky4
													{
														OFFSET 3.647202 0.000000 0.000000
														CHANNELS 3 Xrotation Yrotation Zrotation
														End Site
														{
															OFFSET 0.000000 0.000000 0.000000
														}
													}
												}
											}
										}
									}
								}
							}
						}
					}
					JOINT RightShoulder
					{
						OFFSET -7.570500 7.247704 -3.868750
						CHANNELS 3 Xrotation Yrotation Zrotation
						JOINT RightShoulder_split
						{
							OFFSET -7.570500 7.247704 -3.868750
							CHANNELS 3 Xrotation Yrotation Zrotation
							JOINT RightArm
							{
								OFFSET -9.308998 -2.777710 0.208500
								CHANNELS 3 Xrotation Yrotation Zrotation
								JOINT RightForeArm
								{
									OFFSET -29.972300 0.000000 0.000000
									CHANNELS 3 Xrotation Yrotation Zrotation
									JOINT RightHand
									{
										OFFSET -26.026505 0.000000 0.000000
										CHANNELS 3 Xrotation Yrotation Zrotation
										JOINT RightHandThumb1
										{
											OFFSET -12.240601 -7.148026 9.207092
											CHANNELS 3 Xrotation Yrotation Zrotation
											JOINT RightHandThumb2
											{
												OFFSET -4.138618 -2.389435 2.389433
												CHANNELS 3 Xrotation Yrotation Zrotation
												JOINT RightHandThumb3
												{
													OFFSET -2.726974 -1.574417 1.574421
													CHANNELS 3 Xrotation Yrotation Zrotation
													JOINT RightHandThumb4
													{
														OFFSET -3.941010 -2.275345 2.275343
														CHANNELS 3 Xrotation Yrotation Zrotation
														End Site
														{
															OFFSET 0.000000 0.000000 0.000000
														}
													}
												}
											}
										}
										JOINT RightHandIndex1
										{
											OFFSET -24.424698 -1.985657 5.953444
											CHANNELS 3 Xrotation Yrotation Zrotation
											JOINT RightHandIndex2
											{
												OFFSET -6.426697 0.000000 0.000000
												CHANNELS 3 Xrotation Yrotation Zrotation
												JOINT RightHandIndex3
												{
													OFFSET -5.337898 0.000000 0.000000
													CHANNELS 3 Xrotation Yrotation Zrotation
													JOINT RightHandIndex4
													{
														OFFSET -4.409401 0.000000 0.000000
														CHANNELS 3 Xrotation Yrotation Zrotation
														End Site
														{
															OFFSET 0.000000 0.000000 0.000000
														}
													}
												}
											}
										}
										JOINT RightHandMiddle1
										{
											OFFSET -23.810097 0.000000 0.000000
											CHANNELS 3 Xrotation Yrotation Zrotation
											JOINT RightHandMiddle2
											{
												OFFSET -7.176498 0.000000 0.000000
												CHANNELS 3 Xrotation Yrotation Zrotation
												JOINT RightHandMiddle3
												{
													OFFSET -6.774902 0.000000 0.000000
													CHANNELS 3 Xrotation Yrotation Zrotation
													JOINT RightHandMiddle4
													{
														OFFSET -5.403328 0.000000 0.000000
														CHANNELS 3 Xrotation Yrotation Zrotation
														End Site
														{
															OFFSET 0.000000 0.000000 0.000000
														}
													}
												}
											}
										}
										JOINT RightHandRing1
										{
											OFFSET -22.908302 -0.839325 -6.020576
											CHANNELS 3 Xrotation Yrotation Zrotation
											JOINT RightHandRing2
											{
												OFFSET -6.337502 0.000000 0.000000
												CHANNELS 3 Xrotation Yrotation Zrotation
												JOINT RightHandRing3
												{
													OFFSET -5.779297 0.000000 0.000000
													CHANNELS 3 Xrotation Yrotation Zrotation
													JOINT RightHandRing4
													{
														OFFSET -4.965698 0.000000 0.000000
														CHANNELS 3 Xrotation Yrotation Zrotation
														End Site
														{
															OFFSET 0.000000 0.000000 0.000000
														}
													}
												}
											}
										}
										JOINT RightHandPinky1
										{
											OFFSET -20.037003 -1.530334 -10.950259
											CHANNELS 3 Xrotation Yrotation Zrotation
											JOINT RightHandPinky2
											{
												OFFSET -5.254700 0.000000 0.000000
												CHANNELS 3 Xrotation Yrotation Zrotation
												JOINT RightHandPinky3
												{
													OFFSET -4.810204 0.000000 0.000000
													CHANNELS 3 Xrotation Yrotation Zrotation
													JOINT RightHandPinky4
													{
														OFFSET -3.647202 0.000000 0.000000
														CHANNELS 3 Xrotation Yrotation Zrotation
														End Site
														{
															OFFSET 0.000000 0.000000 0.000000
														}
													}
												}
											}
										}
									}
								}
							}
						}
					}
				}
			}
		}
	}
	JOINT LeftUpLeg
	{
		OFFSET 15.427100 -6.655098 0.678600
		CHANNELS 3 Xrotation Yrotation Zrotation
		JOINT LeftLeg
		{
			OFFSET 4.081073 -39.591068 13.024000
			CHANNELS 3 Xrotation Yrotation Zrotation
			JOINT LeftFoot
			{
				OFFSET -4.081074 -37.707932 -15.979700
				CHANNELS 3 Xrotation Yrotation Zrotation
				JOINT LeftToeBase
				{
					OFFSET 5.346399 -15.068900 20.645000
					CHANNELS 3 Xrotation Yrotation Zrotation
					JOINT LeftToe_End
					{
						OFFSET 2.754700 0.931300 11.300900
						CHANNELS 3 Xrotation Yrotation Zrotation
						End Site
						{
							OFFSET 0.000000 0.000000 0.000000
						}
					}
				}
			}
		}
	}
	JOINT RightUpLeg
	{
		OFFSET -15.569500 -6.655098 0.678600
		CHANNELS 3 Xrotation Yrotation Zrotation
		JOINT RightLeg
		{
			OFFSET -4.081825 -39.591045 13.023800
			CHANNELS 3 Xrotation Yrotation Zrotation
			JOINT RightFoot
			{
				OFFSET 4.081824 -37.707954 -15.979600
				CHANNELS 3 Xrotation Yrotation Zrotation
				JOINT RightToeBase
				{
					OFFSET -5.346400 -15.068900 20.645000
					CHANNELS 3 Xrotation Yrotation Zrotation
					JOINT RightToe_End
					{
						OFFSET -2.754700 0.931300 11.300900
						CHANNELS 3 Xrotation Yrotation Zrotation
						End Site
						{
							OFFSET 0.000000 0.000000 0.000000
						}
					}
				}
			}
		}
	}
}
MOTION
Frames: 4
Frame Time: 0.016667
15.095383 88.751991 -2.772841 4.160764 -46.561642 3.570292 9.983210 -5.753303 1.982150 3.056900 -1.359263 -0.696754 0.000000 0.000000 0.000000 -8.919073 -4.431378 -1.692196 -8.566930 -5.142931 -4.413995 10.444451 -20.693643 6.191012 -0.000000 0.000000 0.000000 -0.955897 -3.915913 -2.538330 0.000000 0.000000 0.000000 13.282566 6.823603 -62.263608 -0.021056 -42.236886 -0.010401 -13.882451 -0.489230 0.693289 10.625187 -8.592001 14.272394 -0.294846 14.668205 -7.135009 3.583864 12.313817 3.409795 0.000001 0.000001 -0.000004 1.031652 -1.592172 -15.118841 -0.015777 -1.091858 -24.286192 -0.057108 -0.568072 -12.300526 0.000000 0.000003 0.000002 1.615797 -0.182619 -33.849270 -0.338697 -1.382268 -28.184987 -0.280268 -1.320615 -26.616195 0.000001 -0.000002 -0.000003 -0.356902 -2.845875 -41.642963 -0.398119 -1.519199 -29.911881 -0.345606 -1.655575 -31.556331 -0.000001 -0.000000 -0.000001 0.340433 -1.216968 -35.934100 -0.410242 -1.748668 -33.792525 -0.895867 -1.696714 -36.260921 0.000002 -0.000000 -0.000001 -0.771035 0.311203 0.884124 0.000000 0.000000 0.000000 3.113842 10.823053 70.823837 0.587828 47.471007 -0.255418 14.368637 15.131249 2.773469 8.265273 7.734449 -18.880799 5.407348 -20.572678 9.835189 1.742513 -3.611582 0.678890 0.000002 0.000001 -0.000002 0.428061 3.999540 18.226179 -0.076249 1.217070 27.275425 -0.057332 0.568969 12.320496 0.000001 0.000001 -0.000002 -5.761791 0.366109 35.692783 -0.334674 1.374774 28.018548 -0.284287 1.328637 26.790396 0.000003 0.000003 -0.000001 -11.821780 -3.411392 42.352466 -0.510546 1.699967 33.914321 -0.344134 1.653139 31.504022 -0.000002 -0.000001 -0.000001 -5.981481 1.104420 36.964482 -0.585437 1.985530 39.176155 -0.896056 1.696983 36.267065 0.000004 0.000001 -0.000000 -17.360586 14.807517 8.234160 35.121973 21.421744 2.357224 -11.766515 23.813379 -15.574607 -2.951714 -2.232090 -2.573873 -0.000000 -0.000001 -0.000000 -20.220020 -39.172658 -22.327726 32.839758 -10.158753 -1.325338 -15.569109 -9.314845 15.090357 -4.804258 2.347548 2.814572 0.000001 -0.000002 -0.000000 
14.911964 88.770157 -2.987072 3.944246 -48.276631 3.696609 9.906397 -5.778505 1.914783 2.967045 -1.211541 -0.652809 0.000000 0.000000 0.000000 -9.020273 -4.366687 -1.601919 -8.544200 -4.716537 -4.541435 10.608243 -19.712419 5.755015 0.000000 0.000000 -0.000000 -0.878239 -4.226526 -2.233009 0.000000 0.000000 0.000000 13.531516 6.780622 -62.153014 -0.020250 -42.480621 -0.009966 -13.978577 -1.700588 0.681732 10.610716 -8.609787 14.293143 -0.357694 14.631814 -7.082084 3.544711 12.122234 3.317802 0.000002 0.000001 0.000001 1.074729 -1.682902 -15.031761 -0.013498 -1.086861 -24.168016 -0.056444 -0.565020 -12.233719 -0.000002 -0.000000 -0.000000 1.556052 -0.222456 -33.860297 -0.339056 -1.382950 -28.200480 -0.273229 -1.306443 -26.308656 -0.000002 -0.000002 0.000002 -0.383717 -2.808686 -41.684245 -0.402815 -1.527363 -30.088745 -0.346122 -1.656467 -31.574209 -0.000001 -0.000001 -0.000000 0.287499 -1.145999 -35.957189 -0.410973 -1.749764 -33.816714 -0.896305 -1.697335 -36.275517 -0.000002 -0.000001 0.000000 -0.846761 0.820777 0.916898 0.000000 0.000000 0.000000 2.989850 9.871409 70.799514 0.512280 47.191082 -0.227982 14.622730 15.064749 2.863407 8.265272 7.734451 -18.880805 5.407345 -20.572678 9.835184 1.742512 -3.611579 0.678894 -0.000000 -0.000000 0.000002 0.423808 3.988753 18.092811 -0.070903 1.206688 27.024456 -0.057047 0.567906 12.297322 0.000000 0.000003 -0.000000 -5.693463 0.419501 35.471310 -0.331025 1.367871 27.864947 -0.284013 1.328023 26.778306 0.000001 0.000003 0.000001 -11.722672 -3.292678 42.202554 -0.507887 1.695987 33.824333 -0.342035 1.649856 31.433381 -0.000000 0.000000 -0.000001 -5.917751 1.153310 36.846531 -0.580059 1.978845 39.019218 -0.894913 1.695455 36.227470 0.000003 0.000000 -0.000001 -16.513157 15.130949 8.420715 35.115953 22.282876 2.269842 -11.725651 24.351354 -16.395446 -2.615618 -1.916439 -2.884485 0.000000 -0.000000 0.000000 -20.632854 -38.924722 -22.704210 32.855928 -9.937027 -1.325754 -14.928758 -9.060681 14.847902 -5.415912 2.348667 2.459463 -0.000000 -0.000001 0.000000 
14.720251 88.728638 -3.238334 3.770360 -49.835943 3.747965 9.836799 -5.735792 1.853699 2.895062 -1.071960 -0.562725 0.000000 0.000000 0.000000 -9.100045 -4.316077 -1.464392 -8.530111 -4.413670 -4.597618 10.720729 -18.797806 5.274396 -0.000000 0.000000 0.000000 -0.800622 -4.500678 -1.933183 0.000000 0.000000 0.000000 13.652194 6.640058 -62.119607 -0.019448 -42.599791 -0.009525 -13.882682 -2.727303 0.797312 10.581107 -8.637575 14.338678 -0.414992 14.605897 -7.028260 3.471653 11.765856 3.146825 -0.000001 0.000002 -0.000004 1.114350 -1.838923 -14.860077 -0.009414 -1.077748 -23.952765 -0.055256 -0.559481 -12.112057 0.000002 -0.000003 -0.000002 1.447521 -0.296462 -33.824552 -0.338980 -1.382818 -28.197594 -0.261201 -1.281847 -25.776627 -0.000001 -0.000002 0.000000 -0.428741 -2.746218 -41.695378 -0.407282 -1.535076 -30.256929 -0.345846 -1.656024 -31.565340 0.000001 0.000000 0.000000 0.203710 -1.028232 -35.966236 -0.410857 -1.749616 -33.813077 -0.895461 -1.696206 -36.246974 0.000001 0.000000 -0.000000 -0.922055 1.266279 0.964826 0.000000 0.000000 0.000000 2.893475 8.881782 70.701576 0.416251 46.895830 -0.192430 14.871105 14.853431 2.950800 8.265272 7.734448 -18.880801 5.407353 -20.572678 9.835191 1.742513 -3.611579 0.678891 0.000000 -0.000001 0.000001 0.417027 3.978095 17.908604 -0.063698 1.192405 26.680720 -0.056765 0.566451 12.264601 0.000000 0.000002 0.000000 -5.592577 0.494503 35.169054 -0.326008 1.358348 27.654862 -0.283546 1.327121 26.757620 0.000001 -0.000002 -0.000001 -11.569884 -3.123233 41.996098 -0.504102 1.690294 33.696206 -0.339208 1.645120 31.333336 -0.000003 0.000001 -0.000000 -5.821076 1.217431 36.684891 -0.572458 1.969465 38.798213 -0.893281 1.693204 36.170267 -0.000000 -0.000001 0.000001 -16.177055 15.388490 8.857048 35.685259 23.327051 2.210842 -11.546590 24.363408 -16.908994 -2.120276 -1.451140 -3.341930 -0.000000 0.000000 -0.000000 -21.106331 -38.633148 -22.702702 33.167112 -9.349160 -1.331621 -15.261528 -8.326325 14.146702 -5.415902 2.348632 2.459460 -0.000001 0.000000 0.000000 
14.540522 88.644753 -3.521289 3.613477 -51.224124 3.641395 9.780061 -5.615350 1.854977 2.839602 -0.944643 -0.432627 0.000000 0.000000 0.000000 -9.159909 -4.281930 -1.286580 -8.508168 -4.235825 -4.578833 10.792601 -17.958406 4.764732 0.000000 0.000000 0.000000 -0.726153 -4.749524 -1.633528 0.000000 0.000000 0.000000 13.608971 6.402176 -62.096658 -0.018533 -42.554070 -0.009084 -13.603449 -3.571046 1.026140 10.535346 -8.677443 14.409845 -0.467903 14.589185 -6.973097 3.362501 11.235072 2.892891 -0.000002 0.000001 -0.000003 1.151718 -2.065178 -14.597900 -0.003378 -1.063930 -23.629345 -0.053475 -0.551168 -11.929766 -0.000002 -0.000000 0.000000 1.286356 -0.405995 -33.745055 -0.338481 -1.381872 -28.176885 -0.243939 -1.245388 -24.993358 0.000003 0.000004 0.000000 -0.495287 -2.655278 -41.684105 -0.411505 -1.542238 -30.413309 -0.344785 -1.654285 -31.528331 0.000001 -0.000001 0.000001 0.084674 -0.856794 -35.964525 -0.409953 -1.748219 -33.782491 -0.893435 -1.693416 -36.175598 -0.000002 -0.000001 -0.000000 -0.995144 1.645281 1.031886 0.000000 0.000000 0.000000 2.815497 7.867687 70.540083 0.304942 46.539475 -0.149992 15.123878 14.466168 3.017647 8.265276 7.734449 -18.880806 5.407348 -20.572680 9.835189 1.742513 -3.611577 0.678888 -0.000003 -0.000001 0.000001 0.408414 3.965417 17.675059 -0.054642 1.174345 26.246979 -0.056335 0.564489 12.221578 -0.000000 0.000002 -0.000001 -5.466618 0.586064 34.785675 -0.319731 1.346279 27.387880 -0.282823 1.325644 26.725625 0.000001 -0.000002 0.000001 -11.377716 -2.913350 41.731056 -0.499269 1.683039 33.531431 -0.335440 1.638904 31.201298 -0.000001 0.000001 0.000001 -5.699270 1.294657 36.479214 -0.562731 1.957330 38.514204 -0.891077 1.690162 36.093247 0.000003 0.000000 0.000000 -16.491060 15.483221 9.857963 36.992014 23.983048 2.090882 -10.342681 23.969111 -18.135356 -1.518846 -0.885963 -3.896992 -0.000000 0.000001 -0.000000 -21.299955 -38.246720 -22.340251 33.481119 -8.936596 -1.342398 -15.582508 -7.792792 13.528119 -5.415905 2.348504 2.459469 0.000000 0.000001 -0.000000 
